<svg width="16" height="12" viewBox="0 0 16 12" fill="none" xmlns="http://www.w3.org/2000/svg">
<mask id="path-1-inside-1_411_6884" fill="white">
<path fill-rule="evenodd" clip-rule="evenodd" d="M0.985196 0C0.441087 0 0 0.441086 0 0.985195V8.76824C0 9.31235 0.441087 9.75344 0.985195 9.75344H5.4187C5.42533 9.76341 5.43238 9.77326 5.43987 9.78299L6.99863 11.8079C7.19582 12.064 7.58212 12.064 7.7793 11.8079L9.33807 9.78299C9.34556 9.77326 9.35261 9.76341 9.35924 9.75344H14.1868C14.7309 9.75344 15.172 9.31235 15.172 8.76824V0.985196C15.172 0.441087 14.7309 0 14.1868 0H0.985196Z"/>
</mask>
<path fill-rule="evenodd" clip-rule="evenodd" d="M0.985196 0C0.441087 0 0 0.441086 0 0.985195V8.76824C0 9.31235 0.441087 9.75344 0.985195 9.75344H5.4187C5.42533 9.76341 5.43238 9.77326 5.43987 9.78299L6.99863 11.8079C7.19582 12.064 7.58212 12.064 7.7793 11.8079L9.33807 9.78299C9.34556 9.77326 9.35261 9.76341 9.35924 9.75344H14.1868C14.7309 9.75344 15.172 9.31235 15.172 8.76824V0.985196C15.172 0.441087 14.7309 0 14.1868 0H0.985196Z" fill="white"/>
<path d="M5.4187 9.75344L6.0849 9.31052L5.84749 8.95344H5.4187V9.75344ZM5.43987 9.78299L6.07379 9.295L6.07379 9.29499L5.43987 9.78299ZM6.99863 11.8079L6.36471 12.2959L6.36471 12.2959L6.99863 11.8079ZM7.7793 11.8079L7.14538 11.3199L7.14538 11.3199L7.7793 11.8079ZM9.33807 9.78299L8.70416 9.29497L8.70414 9.29499L9.33807 9.78299ZM9.35924 9.75344V8.95344H8.93044L8.69304 9.31052L9.35924 9.75344ZM0.8 0.985195C0.8 0.882915 0.882914 0.8 0.985196 0.8V-0.8C-0.000739753 -0.8 -0.8 -0.000742292 -0.8 0.985195H0.8ZM0.8 8.76824V0.985195H-0.8V8.76824H0.8ZM0.985195 8.95344C0.882915 8.95344 0.8 8.87052 0.8 8.76824H-0.8C-0.8 9.75418 -0.000741724 10.5534 0.985195 10.5534V8.95344ZM5.4187 8.95344H0.985195V10.5534H5.4187V8.95344ZM6.07379 9.29499C6.07753 9.29985 6.08125 9.30502 6.0849 9.31052L4.7525 10.1964C4.76941 10.2218 4.78723 10.2467 4.80595 10.271L6.07379 9.29499ZM7.63255 11.3199L6.07379 9.295L4.80594 10.271L6.36471 12.2959L7.63255 11.3199ZM7.14538 11.3199C7.26843 11.16 7.5095 11.16 7.63255 11.3199L6.36471 12.2959C6.88214 12.968 7.8958 12.968 8.41323 12.2959L7.14538 11.3199ZM8.70414 9.29499L7.14538 11.3199L8.41323 12.2959L9.97199 10.271L8.70414 9.29499ZM8.69304 9.31052C8.69668 9.30504 8.7004 9.29986 8.70416 9.29497L9.97198 10.271C9.99071 10.2467 10.0085 10.2218 10.0254 10.1964L8.69304 9.31052ZM14.1868 8.95344H9.35924V10.5534H14.1868V8.95344ZM14.372 8.76824C14.372 8.87052 14.2891 8.95344 14.1868 8.95344V10.5534C15.1728 10.5534 15.972 9.75418 15.972 8.76824H14.372ZM14.372 0.985196V8.76824H15.972V0.985196H14.372ZM14.1868 0.8C14.2891 0.8 14.372 0.882914 14.372 0.985196H15.972C15.972 -0.000740116 15.1728 -0.8 14.1868 -0.8V0.8ZM0.985196 0.8H14.1868V-0.8H0.985196V0.8Z" fill="#221C75" mask="url(#path-1-inside-1_411_6884)"/>
<rect x="2" y="2" width="10" height="1" rx="0.5" fill="#221C75"/>
<rect x="2" y="5" width="5" height="1" rx="0.5" fill="#221C75"/>
</svg>
