<svg width="16" height="17" viewBox="0 0 16 17" fill="none" xmlns="http://www.w3.org/2000/svg">
<g filter="url(#filter0_d_415_7485)">
<path fill-rule="evenodd" clip-rule="evenodd" d="M7.29649 1.04652C7.29649 0.805698 7.49172 0.610474 7.73254 0.610474C7.97336 0.610474 8.16859 0.805698 8.16859 1.04652V2.06396C8.16859 2.30479 7.97336 2.50001 7.73254 2.50001C7.49172 2.50001 7.29649 2.30479 7.29649 2.06396V1.04652ZM12.5291 7.8779C12.5291 10.5269 10.3816 12.6744 7.73255 12.6744C5.08351 12.6744 2.93604 10.5269 2.93604 7.8779C2.93604 5.22886 5.08351 3.08138 7.73255 3.08138C10.3816 3.08138 12.5291 5.22886 12.5291 7.8779ZM11.3374 1.70057C11.1288 1.58016 10.8621 1.65161 10.7417 1.86017L10.233 2.7413C10.1126 2.94986 10.184 3.21654 10.3926 3.33695C10.6012 3.45737 10.8678 3.38591 10.9883 3.17735L11.497 2.29622C11.6174 2.08766 11.5459 1.82098 11.3374 1.70057ZM13.4213 4.05569C13.6298 3.93528 13.8965 4.00674 14.0169 4.2153C14.1373 4.42386 14.0659 4.69054 13.8573 4.81095L12.9762 5.31967C12.7676 5.44008 12.5009 5.36862 12.3805 5.16007C12.2601 4.95151 12.3316 4.68483 12.5401 4.56441L13.4213 4.05569ZM15 7.87793C15 7.63711 14.8048 7.44189 14.5639 7.44189H13.5465C13.3057 7.44189 13.1104 7.63711 13.1104 7.87793C13.1104 8.11876 13.3057 8.31398 13.5465 8.31398H14.5639C14.8048 8.31398 15 8.11876 15 7.87793ZM13.8378 11.0325C14.0464 11.1529 14.1178 11.4196 13.9974 11.6281C13.877 11.8367 13.6103 11.9081 13.4018 11.7877L12.5206 11.279C12.3121 11.1586 12.2406 10.8919 12.361 10.6834C12.4814 10.4748 12.7481 10.4033 12.9567 10.5238L13.8378 11.0325ZM11.3569 14.1428C11.5654 14.0224 11.6369 13.7557 11.5165 13.5471L11.0077 12.666C10.8873 12.4575 10.6206 12.386 10.4121 12.5064C10.2035 12.6268 10.1321 12.8935 10.2525 13.1021L10.7612 13.9832C10.8816 14.1918 11.1483 14.2632 11.3569 14.1428ZM1.91858 7.44189C2.1594 7.44189 2.35462 7.63711 2.35462 7.87793C2.35462 8.11876 2.1594 8.31398 1.91858 8.31398H0.901134C0.660312 8.31398 0.465088 8.11876 0.465088 7.87793C0.465088 7.63711 0.660313 7.44189 0.901135 7.44189H1.91858ZM3.04624 5.30542C3.16665 5.09687 3.0952 4.83018 2.88664 4.70977L2.00551 4.20105C1.79695 4.08064 1.53027 4.1521 1.40986 4.36066C1.28945 4.56921 1.3609 4.8359 1.56946 4.95631L2.45059 5.46503C2.65915 5.58544 2.92583 5.51398 3.04624 5.30542ZM5.19375 2.59597C5.31417 2.80453 5.24271 3.07121 5.03415 3.19162C4.82559 3.31204 4.55891 3.24058 4.4385 3.03202L3.92978 2.15089C3.80937 1.94233 3.88082 1.67565 4.08938 1.55524C4.29794 1.43483 4.56462 1.50628 4.68503 1.71484L5.19375 2.59597ZM7.73252 15C7.97334 15 8.16856 14.8048 8.16856 14.564V13.5465C8.16856 13.3057 7.97334 13.1105 7.73252 13.1105C7.4917 13.1105 7.29647 13.3057 7.29647 13.5465V14.564C7.29647 14.8048 7.4917 15 7.73252 15ZM4.73826 14.0027C4.61785 14.2113 4.35117 14.2827 4.14261 14.1623C3.93405 14.0419 3.8626 13.7752 3.98301 13.5667L4.49173 12.6855C4.61214 12.477 4.87882 12.4055 5.08738 12.5259C5.29594 12.6464 5.36739 12.913 5.24698 13.1216L4.73826 14.0027ZM1.55519 11.4101C1.6756 11.6186 1.94228 11.6901 2.15084 11.5697L3.03197 11.061C3.24053 10.9405 3.31198 10.6739 3.19157 10.4653C3.07116 10.2568 2.80448 10.1853 2.59592 10.3057L1.71479 10.8144C1.50623 10.9348 1.43478 11.2015 1.55519 11.4101Z" fill="#F2F1F7"/>
</g>
<defs>
<filter id="filter0_d_415_7485" x="0.0290411" y="0.610474" width="15.6977" height="15.5523" filterUnits="userSpaceOnUse" color-interpolation-filters="sRGB">
<feFlood flood-opacity="0" result="BackgroundImageFix"/>
<feColorMatrix in="SourceAlpha" type="matrix" values="0 0 0 0 0 0 0 0 0 0 0 0 0 0 0 0 0 0 127 0" result="hardAlpha"/>
<feOffset dx="0.145349" dy="0.581396"/>
<feGaussianBlur stdDeviation="0.290698"/>
<feComposite in2="hardAlpha" operator="out"/>
<feColorMatrix type="matrix" values="0 0 0 0 0 0 0 0 0 0 0 0 0 0 0 0 0 0 0.25 0"/>
<feBlend mode="normal" in2="BackgroundImageFix" result="effect1_dropShadow_415_7485"/>
<feBlend mode="normal" in="SourceGraphic" in2="effect1_dropShadow_415_7485" result="shape"/>
</filter>
</defs>
</svg>
