<svg width="13" height="11" viewBox="0 0 13 11" fill="none" xmlns="http://www.w3.org/2000/svg">
<path fill-rule="evenodd" clip-rule="evenodd" d="M2.56636 4.67573C2.91371 2.55072 4.57981 1 6.5 1C8.42019 1 10.0863 2.55073 10.4336 4.67573C10.1717 4.85605 10 5.15797 10 5.5V9.5C10 10.0523 10.4477 10.5 11 10.5H12C12.5523 10.5 13 10.0523 13 9.5V5.5C13 4.94772 12.5523 4.5 12 4.5H11.4169C10.9925 1.97291 8.98936 0 6.5 0C4.01064 0 2.00746 1.97291 1.58307 4.5H1C0.447715 4.5 0 4.94772 0 5.5V9.5C0 10.0523 0.447715 10.5 1 10.5H2C2.55228 10.5 3 10.0523 3 9.5V5.5C3 5.15797 2.82828 4.85604 2.56636 4.67573Z" fill="black"/>
</svg>
