<svg width="42" height="42" viewBox="0 0 42 42" fill="none" xmlns="http://www.w3.org/2000/svg">
<path d="M21.0737 9.76084C26.6745 9.76084 31.9093 11.3049 36.4134 14L41.2235 5.57762C35.3099 2.02518 28.4253 0 21.0737 0C13.7288 0 6.85243 2.02518 0.9375 5.57762L5.7462 14C10.2531 11.3049 15.4947 9.76084 21.0737 9.76084V9.76084Z" fill="#25167A"/>
<path d="M25.4951 15.0102C23.5692 14.9889 17.7271 14.8694 10.2163 18.538C9.25881 19.0076 8.5814 19.399 8.41845 19.1499C8.09523 18.6077 10.483 16.4646 13.0445 14.8978C13.971 14.3158 14.5003 13.8078 14.2929 13.3752C13.9845 12.7447 12.1489 12.6152 7.02727 15.3845C4.40383 16.9314 2.03088 18.9094 0 21.2119L0.834976 22.0459C1.65783 21.1251 2.54533 20.2727 3.45034 19.4374C4.05502 18.8838 6.85489 16.6724 7.09999 17.3398C7.19426 17.6073 7.01515 17.9973 6.02395 19.4288C5.15935 20.6954 4.59102 21.8794 5.00043 22.2408C5.40849 22.6065 5.9014 22.3988 7.06902 21.7186C7.93497 21.2134 10.6823 19.675 15.0134 18.2989C19.3445 16.9328 20.3977 17.4522 20.5027 17.7866C20.6347 18.2363 18.6402 18.982 17.4645 19.5982C16.48 20.1304 13.0054 22.2878 11.12 23.893C11.12 23.893 12.9475 27.2073 12.9556 27.2073C14.9003 25.9977 22.31 24.0168 23.1019 25.4484C23.9706 27.0194 16.0854 32.8753 16.0854 32.8753L21.1101 42C21.1101 42 32.5425 28.1252 30.7204 25.0812C28.8821 22.053 22.0003 22.6137 19.2853 22.8855C18.5392 22.9552 17.6638 23.1274 17.4793 22.7375C17.2746 22.3063 17.5103 20.573 26.6856 18.2762C28.7259 17.771 29.5205 17.5063 29.4087 16.5528C29.3144 15.7346 27.4222 15.0245 25.4951 15.0102V15.0102Z" fill="#25167A"/>
</svg>
