<svg width="24" height="22" viewBox="0 0 24 22" fill="none" xmlns="http://www.w3.org/2000/svg">
<path d="M11.7819 5.11282C14.9133 5.11282 17.8401 5.92161 20.3583 7.33333L23.0476 2.92161C19.7414 1.06081 15.8922 0 11.7819 0C7.67541 0 3.83083 1.06081 0.523804 2.92161L3.21234 7.33333C5.73212 5.92161 8.6627 5.11282 11.7819 5.11282V5.11282Z" fill="white"/>
<path d="M14.2542 7.8625C13.1775 7.85131 9.91117 7.7887 5.71193 9.71037C5.17658 9.95636 4.79784 10.1613 4.70673 10.0309C4.52602 9.7469 5.86102 8.62431 7.29314 7.80361C7.81118 7.49873 8.10709 7.23262 7.99113 7.00602C7.8187 6.6758 6.79242 6.60797 3.92893 8.05854C2.46217 8.8688 1.13546 9.90493 0 11.111L0.466833 11.5478C0.92689 11.0655 1.42309 10.619 1.92908 10.1815C2.26715 9.89151 3.83255 8.73314 3.96959 9.08274C4.0223 9.22287 3.92215 9.42712 3.36798 10.177C2.88458 10.8404 2.56683 11.4606 2.79573 11.6499C3.02387 11.8415 3.29946 11.7327 3.95227 11.3764C4.43642 11.1117 5.97245 10.306 8.39396 9.58514C10.8155 8.86955 11.4043 9.14162 11.463 9.31679C11.5368 9.55234 10.4217 9.94294 9.76435 10.2657C9.21393 10.5445 7.27131 11.6745 6.21717 12.5154C6.21717 12.5154 7.23893 14.2514 7.24345 14.2514C8.33072 13.6178 12.4735 12.5802 12.9162 13.3301C13.4019 14.153 8.99332 17.2204 8.99332 17.2204L11.8026 22C11.8026 22 18.1945 14.7322 17.1757 13.1378C16.1479 11.5515 12.3003 11.8452 10.7823 11.9876C10.3652 12.0241 9.87578 12.1143 9.77263 11.9101C9.65818 11.6842 9.78995 10.7763 14.9198 9.57322C16.0606 9.30859 16.5048 9.16995 16.4423 8.67052C16.3896 8.24191 15.3317 7.86995 14.2542 7.8625V7.8625Z" fill="white"/>
</svg>
