<svg width="16" height="12" viewBox="0 0 16 12" fill="none" xmlns="http://www.w3.org/2000/svg">
<mask id="path-1-inside-1_411_6877" fill="white">
<path fill-rule="evenodd" clip-rule="evenodd" d="M7.92857 12C12.3074 12 15.8571 9.31371 15.8571 6C15.8571 2.68629 12.3074 0 7.92857 0C3.54974 0 0 2.68629 0 6C0 7.42925 0.660365 8.74178 1.76279 9.77239L1.41538 11.1599C1.37268 11.3304 1.54211 11.4769 1.70469 11.4101L3.17855 10.8045C4.50245 11.5553 6.14688 12 7.92857 12Z"/>
</mask>
<path fill-rule="evenodd" clip-rule="evenodd" d="M7.92857 12C12.3074 12 15.8571 9.31371 15.8571 6C15.8571 2.68629 12.3074 0 7.92857 0C3.54974 0 0 2.68629 0 6C0 7.42925 0.660365 8.74178 1.76279 9.77239L1.41538 11.1599C1.37268 11.3304 1.54211 11.4769 1.70469 11.4101L3.17855 10.8045C4.50245 11.5553 6.14688 12 7.92857 12Z" fill="white"/>
<path d="M1.76279 9.77239L2.53884 9.96671L2.65327 9.50971L2.30912 9.18799L1.76279 9.77239ZM1.41538 11.1599L2.19142 11.3542L2.19142 11.3542L1.41538 11.1599ZM1.70469 11.4101L1.40063 10.6701L1.40063 10.6701L1.70469 11.4101ZM3.17855 10.8045L3.57319 10.1086L3.23457 9.91656L2.87449 10.0645L3.17855 10.8045ZM15.0571 6C15.0571 7.35168 14.3351 8.63385 13.0522 9.60472C11.7688 10.5759 9.95994 11.2 7.92857 11.2V12.8C10.276 12.8 12.4315 12.0809 14.0177 10.8806C15.6043 9.67985 16.6571 7.96203 16.6571 6H15.0571ZM7.92857 0.8C9.95994 0.8 11.7688 1.42405 13.0522 2.39528C14.3351 3.36614 15.0571 4.64832 15.0571 6H16.6571C16.6571 4.03797 15.6043 2.32015 14.0177 1.11943C12.4315 -0.0809091 10.276 -0.8 7.92857 -0.8V0.8ZM0.8 6C0.8 4.64832 1.52206 3.36614 2.80498 2.39528C4.08839 1.42405 5.8972 0.8 7.92857 0.8V-0.8C5.58111 -0.8 3.42564 -0.0809091 1.83947 1.11943C0.252815 2.32015 -0.8 4.03797 -0.8 6H0.8ZM2.30912 9.18799C1.33743 8.2796 0.8 7.16849 0.8 6H-0.8C-0.8 7.69001 -0.0167009 9.20396 1.21647 10.3568L2.30912 9.18799ZM2.19142 11.3542L2.53884 9.96671L0.986753 9.57807L0.639334 10.9655L2.19142 11.3542ZM1.40063 10.6701C1.845 10.4875 2.30811 10.8881 2.19142 11.3542L0.639335 10.9655C0.437252 11.7726 1.23922 12.4663 2.00875 12.1501L1.40063 10.6701ZM2.87449 10.0645L1.40063 10.6701L2.00874 12.1501L3.48261 11.5444L2.87449 10.0645ZM7.92857 11.2C6.27757 11.2 4.77027 10.7875 3.57319 10.1086L2.78391 11.5004C4.23462 12.3231 6.01619 12.8 7.92857 12.8V11.2Z" fill="#221C75" mask="url(#path-1-inside-1_411_6877)"/>
<circle cx="4.60716" cy="5.89287" r="1.17857" fill="#221C75"/>
<circle cx="7.82146" cy="5.89287" r="1.17857" fill="#221C75"/>
<circle cx="11.0357" cy="5.89287" r="1.17857" fill="#221C75"/>
</svg>
